Coordinates
version=1
nRows=10
nColumns=22
inDegrees=yes

Units are S.I. units (second, meters, Newtons, ...)
If the header above contains a line with 'inDegrees', this indicates whether rotational values are in degrees (yes) or radians (no).

endheader
time	pelvis_tilt	pelvis_list	pelvis_rotation	pelvis_tx	pelvis_ty	pelvis_tz	hip_flexion_r	hip_adduction_r	hip_rotation_r	knee_angle_r	ankle_angle_r	subtalar_angle_r	hip_flexion_l	hip_adduction_l	hip_rotation_l	knee_angle_l	ankle_angle_l	subtalar_angle_l	lumbar_extension	lumbar_bending	lumbar_rotation
      4.72000000	      1.06617935	      0.17433977	    292.10537081	     -0.47008115	      0.90995120	      0.49352398	     24.07155970	     -4.89151816	      8.45486201	     -3.06927051	      4.89948594	     13.37087609	    -13.98614472	      5.59318933	     23.29158459	    -11.86930548	     17.86111169	    -12.97439167	     -7.95424817	     -7.86077625	    -13.80862234
      4.73000000	      1.20927737	      0.36200427	    292.73321820	     -0.46875022	      0.90792742	      0.50259176	     24.54450364	     -5.01373581	      8.45363094	     -4.16657309	      4.73257047	     13.07364223	    -14.43107426	      5.46905687	     23.72409392	    -11.96230251	     18.00507081	    -13.10152499	     -7.77532717	     -8.01172382	    -13.87596635
      4.74000000	      1.27540150	      0.56664402	    293.31611119	     -0.46743823	      0.90597179	      0.51170831	     25.08677541	     -5.04914956	      8.51436653	     -5.50153421	      4.33401626	     12.82354497	    -14.76314513	      5.30943801	     24.09193561	    -12.18523048	     18.13776725	    -13.21304563	     -7.54734568	     -8.08672415	    -13.84197628
      4.75000000	      1.23447149	      0.75768158	    293.86090785	     -0.46614069	      0.90418186	      0.52092715	     25.66158644	     -4.95778839	      8.57136710	     -7.00017585	      3.71476431	     12.66355107	    -15.03442594	      5.05649947	     24.39459764	    -12.46190593	     18.20856360	    -13.27970078	     -7.27214502	     -8.03762884	    -13.78284102
      4.76000000	      1.10534995	      0.94246731	    294.34769087	     -0.46489218	      0.90259308	      0.53016814	     26.29902446	     -4.75109122	      8.58797130	     -8.65225851	      2.92551588	     12.54960160	    -15.19571264	      4.75987973	     24.59147151	    -12.88053775	     18.22135091	    -13.33039743	     -6.95807378	     -7.89257366	    -13.62229477
      4.77000000	      0.86370526	      1.09529890	    294.77591736	     -0.46366464	      0.90128363	      0.53948303	     26.97363243	     -4.40229210	      8.51281187	    -10.41189062	      2.04609453	     12.48118830	    -15.29204942	      4.37603220	     24.69329720	    -13.37707196	     18.13361378	    -13.35028448	     -6.60360521	     -7.60756872	    -13.39808594
      4.78000000	      0.52854437	      1.22264063	    295.14150872	     -0.46244831	      0.90027725	      0.54886838	     27.68713504	     -3.93860247	      8.33689477	    -12.25914598	      1.21160676	     12.44844380	    -15.31134072	      3.93530831	     24.69872331	    -13.97489769	     17.91064838	    -13.33188926	     -6.20656090	     -7.21073798	    -13.10159535
      4.79000000	      0.11538314	      1.28062904	    295.45474804	     -0.46117246	      0.89966013	      0.55832446	     28.34987625	     -3.37776789	      8.04310451	    -14.10711607	      0.45200230	     12.44367260	    -15.29588142	      3.43802545	     24.59993476	    -14.69208768	     17.58285301	    -13.28734786	     -5.81803452	     -6.68495331	    -12.73621025
      4.80000000	     -0.35156270	      1.28918148	    295.72780353	     -0.45979139	      0.89942148	      0.56788265	     28.93594146	     -2.76528757	      7.66070706	    -15.88813534	     -0.13576502	     12.51174070	    -15.24596829	      2.90964918	     24.41806040	    -15.50938423	     17.06141600	    -13.18244013	     -5.41964849	     -6.06706719	    -12.33415825
      4.81000000	     -0.84913661	      1.21360576	    295.98459976	     -0.45826470	      0.89962308	      0.57752501	     29.34340837	     -2.12514195	      7.20148398	    -17.49383016	     -0.58421527	     12.66055424	    -15.19238349	      2.35376276	     24.15354984	    -16.44881612	     16.37008420	    -13.02246017	     -5.06544704	     -5.36398332	    -11.90689280
